<svg width="352" height="456" viewBox="0 0 352 456" fill="none" xmlns="http://www.w3.org/2000/svg">
<path d="M71.8086 448.879C54.0456 411.435 19.0236 326.681 21.0399 287.22C5.91733 259.857 -15.2543 195.121 21.0399 155.085C26.3209 151.244 44.8761 152.924 76.8496 190.369M9.51806 223.853C19.1197 228.653 41.2035 245.311 52.7255 273.539C55.846 283.98 66.6238 306.375 84.7709 312.423M64.2474 146.084C77.2096 182.568 105.799 258.057 116.456 268.138M52.7255 155.085C47.3245 126.641 50.277 70.9069 105.294 75.5154M116.456 84.1564C117.056 94.4776 124.234 124.193 148.142 160.485C155.223 177.047 169.169 217.66 168.305 247.616M111.415 72.9951C116.936 51.5126 138.276 16.6125 179.467 48.8723M186.308 45.6318C204.311 20.0688 233.116 4.80309 251.84 86.3167M183.428 57.5133C194.11 77.6756 215.833 130.098 217.274 178.487M308.369 32.3103C290.966 36.6308 257.673 68.3145 263.722 160.485C257.48 162.166 247.447 182.736 257.24 251.576M329.973 87.7568C326.972 135.642 325.364 237.894 342.935 263.818C364.899 296.221 338.614 431.597 304.769 455M71.8086 349.868C101.334 336.546 167.585 298.67 196.39 253.736M110.335 372.91C134.459 337.026 194.086 258.849 239.597 233.214M243.558 236.814C221.714 261.777 180.187 337.266 188.829 439.518M221.954 362.031C220.394 336.588 225.267 282.462 257.24 269.5C297.207 253.298 265.481 329.041 259 324C252.519 318.959 269.843 272.098 298.648 279.659C327.452 287.22 283.303 323.738 263.5 338.5C243.697 353.262 201.431 408.555 217.634 425.837M324.932 80.916C315.33 76.1155 300.808 56.4331 319.531 16.1084C342.935 -34.2975 340.055 56.7932 335.014 66.1543M125.818 269.938C119.097 253.736 110.479 218.236 129.779 205.851C149.078 193.465 161.344 242.215 165.065 268.138C165.305 276.779 158.944 290.605 131.579 276.779M172.626 205.851C162.784 184.368 149.726 141.331 176.227 141.043C209.352 140.683 210.792 170.927 213.313 190.369M213.313 205.851C201.791 223.853 197.83 223.493 176.227 213.052M213.313 118C207.672 102.999 201.935 72.563 224.115 70.8348C246.295 69.1066 250.879 108.039 250.399 127.722C248.004 134.322 239.755 145.148 225.915 135.642M120.417 296.221C115.856 281.34 103.134 254.024 88.7316 263.818C70.7285 276.059 89.0917 312.783 94.8527 317.464C97.6781 319.759 110.337 326.386 116.456 319.984C120.319 315.944 122.577 305.222 120.417 296.221Z" stroke="#FEC2C2"/>
</svg>
